<svg xmlns="http://www.w3.org/2000/svg" version="1.1" xmlns:xlink="http://www.w3.org/1999/xlink" xmlns:svgjs="http://svgjs.dev/svgjs" width="1500" height="617" viewBox="0 0 1500 617"><g transform="matrix(1,0,0,1,-0.9090909090909918,-1.6764431117869094)"><svg viewBox="0 0 396 163" data-background-color="#d2d6dc" preserveAspectRatio="xMidYMid meet" height="617" width="1500" xmlns="http://www.w3.org/2000/svg" xmlns:xlink="http://www.w3.org/1999/xlink"><g id="tight-bounds" transform="matrix(1,0,0,1,0.2400000000000091,0.44288529533430676)"><svg viewBox="0 0 395.52 162.1142294093314" height="162.1142294093314" width="395.52"><g><svg viewBox="0 0 395.52 162.1142294093314" height="162.1142294093314" width="395.52"><g><svg viewBox="0 0 395.52 162.1142294093314" height="162.1142294093314" width="395.52"><g id="textblocktransform"><svg viewBox="0 0 395.52 162.1142294093314" height="162.1142294093314" width="395.52" id="textblock"><g><svg viewBox="0 0 395.52 125.30994107341931" height="125.30994107341931" width="395.52"><g transform="matrix(1,0,0,1,0,0)"><svg width="395.52" viewBox="1.187501406249995 -33.9 235.46249859374998 71.6" height="125.30994107341931" data-palette-color="#6b7280"><svg></svg><svg></svg><g class="wordmark-text-0" data-fill-palette-color="primary" id="text-0"><path d="M7.95-32.1v0c0.833 0 1.567-0.027 2.2-0.08 0.633-0.047 1.217-0.087 1.75-0.12v0c0.2 0.633 0.577 1.617 1.13 2.95 0.547 1.333 1.197 2.907 1.95 4.72 0.747 1.82 1.553 3.747 2.42 5.78 0.867 2.033 1.717 4.057 2.55 6.07 0.833 2.02 1.6 3.897 2.3 5.63v0c0.033 0.067 0.1 0.1 0.2 0.1v0c0.1 0 0.167-0.067 0.2-0.2v0c0.967-2.467 1.833-4.693 2.6-6.68 0.767-1.98 1.543-3.963 2.33-5.95 0.78-1.98 1.637-4.17 2.57-6.57v0c0.3-0.767 0.617-1.6 0.95-2.5 0.333-0.9 0.617-1.683 0.85-2.35 0.233-0.667 0.35-1 0.35-1v0c1.567 0.1 2.85 0.15 3.85 0.15v0c0.867 0 1.843-0.017 2.93-0.05 1.08-0.033 1.92-0.067 2.52-0.1v0c0.033 0.067 0.067 0.317 0.1 0.75 0.033 0.433 0.05 0.65 0.05 0.65v0c-0.233 0-0.607 0.033-1.12 0.1-0.52 0.067-1.013 0.167-1.48 0.3-0.467 0.133-0.75 0.283-0.85 0.45v0c-0.1 0.233-0.167 0.533-0.2 0.9-0.033 0.367-0.05 0.7-0.05 1v0c0.033 0.833 0.067 2.1 0.1 3.8 0.033 1.7 0.073 3.607 0.12 5.72 0.053 2.12 0.107 4.213 0.16 6.28 0.047 2.067 0.087 3.9 0.12 5.5v0c0.033 0.933 0.083 1.817 0.15 2.65 0.067 0.833 0.217 1.533 0.45 2.1v0c0.1 0.233 0.4 0.407 0.9 0.52 0.5 0.12 1.01 0.203 1.53 0.25 0.513 0.053 0.837 0.08 0.97 0.08v0c0.133 0.233 0.193 0.507 0.18 0.82-0.02 0.32-0.047 0.513-0.08 0.58v0c-0.967-0.067-1.907-0.127-2.82-0.18-0.92-0.047-1.913-0.07-2.98-0.07v0c-1.133 0-2.117 0.023-2.95 0.07-0.833 0.053-1.817 0.113-2.95 0.18v0c-0.033-0.067-0.067-0.267-0.1-0.6-0.033-0.333 0-0.6 0.1-0.8v0c0.2 0 0.517-0.027 0.95-0.08 0.433-0.047 0.867-0.113 1.3-0.2 0.433-0.08 0.75-0.17 0.95-0.27v0c0.167-0.1 0.283-0.383 0.35-0.85 0.067-0.467 0.1-0.867 0.1-1.2v0c0-0.367-0.017-0.843-0.05-1.43-0.033-0.58-0.05-1.053-0.05-1.42v0c-0.067-2.367-0.133-4.643-0.2-6.83-0.067-2.18-0.133-4.413-0.2-6.7-0.067-2.28-0.15-4.737-0.25-7.37v0c0-0.1-0.033-0.283-0.1-0.55-0.067-0.267-0.183-0.4-0.35-0.4v0c-0.067 0-0.15 0.117-0.25 0.35v0c-1 2.5-1.923 4.817-2.77 6.95-0.853 2.133-1.68 4.19-2.48 6.17-0.8 1.987-1.607 4.003-2.42 6.05-0.82 2.053-1.697 4.263-2.63 6.63v0c-0.067 0.133-0.217 0.4-0.45 0.8-0.233 0.4-0.473 0.773-0.72 1.12-0.253 0.353-0.48 0.547-0.68 0.58v0c-0.067 0.033-0.183 0.017-0.35-0.05v0c-0.033-0.033-0.067-0.05-0.1-0.05v0l-11.9-28.5c-0.033 2.133-0.083 4.333-0.15 6.6-0.067 2.267-0.123 4.467-0.17 6.6-0.053 2.133-0.103 4.057-0.15 5.77-0.053 1.72-0.097 3.103-0.13 4.15-0.033 1.053-0.05 1.63-0.05 1.73v0c0 0.233 0.017 0.49 0.05 0.77 0.033 0.287 0.083 0.53 0.15 0.73v0c0.1 0.233 0.44 0.417 1.02 0.55 0.587 0.133 1.18 0.223 1.78 0.27 0.6 0.053 0.967 0.08 1.1 0.08v0c0.133 0.133 0.183 0.383 0.15 0.75-0.033 0.367-0.067 0.583-0.1 0.65v0c-0.967-0.067-1.8-0.127-2.5-0.18-0.7-0.047-1.583-0.07-2.65-0.07v0c-1.133 0-2.083 0.023-2.85 0.07-0.767 0.053-1.717 0.113-2.85 0.18v0c-0.033-0.067-0.067-0.267-0.1-0.6-0.033-0.333 0-0.6 0.1-0.8v0c0.2 0 0.593-0.033 1.18-0.1 0.58-0.067 1.153-0.167 1.72-0.3 0.567-0.133 0.917-0.3 1.05-0.5v0c0.233-0.333 0.383-0.693 0.45-1.08 0.067-0.38 0.117-0.837 0.15-1.37v0c0.1-2.933 0.193-5.75 0.28-8.45 0.08-2.7 0.147-5.127 0.2-7.28 0.047-2.147 0.087-3.897 0.12-5.25 0.033-1.347 0.05-2.137 0.05-2.37v0c0-0.367-0.007-0.717-0.02-1.05-0.02-0.333-0.08-0.633-0.18-0.9v0c-0.067-0.2-0.34-0.377-0.82-0.53-0.487-0.147-0.987-0.263-1.5-0.35-0.52-0.08-0.88-0.12-1.08-0.12v0c-0.033 0-0.05-0.227-0.05-0.68 0-0.447 0.017-0.687 0.05-0.72v0c0.767 0.033 1.383 0.067 1.85 0.1 0.467 0.033 0.933 0.057 1.4 0.07 0.467 0.02 1.067 0.03 1.8 0.03zM55.7-21.45v0c2.167 0 4.023 0.467 5.57 1.4 1.553 0.933 2.757 2.2 3.61 3.8 0.847 1.6 1.27 3.417 1.27 5.45v0c0 2.1-0.45 3.99-1.35 5.67-0.9 1.687-2.133 3.02-3.7 4-1.567 0.987-3.333 1.48-5.3 1.48v0c-2.133 0-3.993-0.473-5.58-1.42-1.58-0.953-2.797-2.24-3.65-3.86-0.847-1.613-1.27-3.437-1.27-5.47v0c0-2.1 0.457-3.983 1.37-5.65 0.92-1.667 2.163-2.983 3.73-3.95 1.567-0.967 3.333-1.45 5.3-1.45zM55.15-19.8v0c-1.367 0-2.467 0.41-3.3 1.23-0.833 0.813-1.433 1.86-1.8 3.14-0.367 1.287-0.55 2.63-0.55 4.03v0c0 1.567 0.257 3.133 0.77 4.7 0.52 1.567 1.287 2.867 2.3 3.9 1.02 1.033 2.263 1.55 3.73 1.55v0c1.4 0 2.51-0.41 3.33-1.23 0.813-0.813 1.403-1.87 1.77-3.17 0.367-1.3 0.55-2.633 0.55-4v0c0-1.6-0.267-3.177-0.8-4.73-0.533-1.547-1.3-2.837-2.3-3.87-1-1.033-2.233-1.55-3.7-1.55zM83.15-21.4v0c1.767 0 3.1 0.367 4 1.1 0.9 0.733 1.51 1.867 1.83 3.4 0.313 1.533 0.47 3.483 0.47 5.85v0 5.4c0 0.733 0.01 1.417 0.03 2.05 0.013 0.633 0.087 1.15 0.22 1.55v0c0.067 0.167 0.31 0.317 0.73 0.45 0.413 0.133 0.863 0.223 1.35 0.27 0.48 0.053 0.82 0.08 1.02 0.08v0c0.1 0.133 0.16 0.367 0.18 0.7 0.013 0.333-0.047 0.567-0.18 0.7v0c-1-0.067-1.883-0.127-2.65-0.18-0.767-0.047-1.633-0.07-2.6-0.07v0c-0.933 0-1.773 0.023-2.52 0.07-0.753 0.053-1.63 0.113-2.63 0.18v0c-0.133-0.133-0.19-0.367-0.17-0.7 0.013-0.333 0.07-0.567 0.17-0.7v0c0.2 0 0.533-0.027 1-0.08 0.467-0.047 0.917-0.137 1.35-0.27 0.433-0.133 0.667-0.283 0.7-0.45v0c0.133-0.4 0.21-0.917 0.23-1.55 0.013-0.633 0.02-1.317 0.02-2.05v0-4.9c0-2.033-0.133-3.627-0.4-4.78-0.267-1.147-0.75-1.97-1.45-2.47-0.7-0.5-1.683-0.75-2.95-0.75v0c-0.6 0-1.257 0.19-1.97 0.57-0.72 0.387-1.347 0.797-1.88 1.23-0.533 0.433-0.8 0.733-0.8 0.9v0 10.2c0 0.733 0.01 1.417 0.03 2.05 0.013 0.633 0.087 1.15 0.22 1.55v0c0.067 0.167 0.31 0.317 0.73 0.45 0.413 0.133 0.863 0.223 1.35 0.27 0.48 0.053 0.82 0.08 1.02 0.08v0c0.1 0.133 0.16 0.367 0.18 0.7 0.013 0.333-0.047 0.567-0.18 0.7v0c-1-0.067-1.883-0.127-2.65-0.18-0.767-0.047-1.633-0.07-2.6-0.07v0c-0.933 0-1.773 0.023-2.52 0.07-0.753 0.053-1.63 0.113-2.63 0.18v0c-0.133-0.133-0.19-0.367-0.17-0.7 0.013-0.333 0.07-0.567 0.17-0.7v0c0.2 0 0.533-0.027 1-0.08 0.467-0.047 0.917-0.137 1.35-0.27 0.433-0.133 0.667-0.283 0.7-0.45v0c0.133-0.4 0.21-0.917 0.23-1.55 0.013-0.633 0.02-1.317 0.02-2.05v0-21.6c0-0.333-0.007-0.767-0.02-1.3-0.02-0.533-0.097-0.95-0.23-1.25v0c-0.133-0.367-0.49-0.6-1.07-0.7-0.587-0.1-1.213-0.15-1.88-0.15v0c-0.033 0-0.057-0.21-0.07-0.63-0.02-0.413 0.02-0.637 0.12-0.67v0c1.233-0.133 2.433-0.377 3.6-0.73 1.167-0.347 2.267-0.753 3.3-1.22v0c0.133 0 0.26 0.09 0.38 0.27 0.113 0.187 0.17 0.363 0.17 0.53v0c0 0-0.09 0.367-0.27 1.1-0.187 0.733-0.28 1.783-0.28 3.15v0 11.05c0 0.067 0.05 0.1 0.15 0.1v0c0.033 0 0.083-0.033 0.15-0.1v0c0.333-0.367 0.877-0.833 1.63-1.4 0.747-0.567 1.57-1.077 2.47-1.53 0.9-0.447 1.733-0.67 2.5-0.67zM105.05-21.3v0c0.933 0 1.81 0.3 2.63 0.9 0.813 0.6 1.47 1.4 1.97 2.4 0.5 1 0.75 2.133 0.75 3.4v0 10.05c0 0.633 0.117 1.173 0.35 1.62 0.233 0.453 0.617 0.68 1.15 0.68v0c0.467 0 0.833-0.1 1.1-0.3 0.267-0.2 0.433-0.317 0.5-0.35v0c0.067 0 0.117 0.05 0.15 0.15 0.033 0.1 0.05 0.183 0.05 0.25v0c0 0.367-0.083 0.683-0.25 0.95v0c-0.2 0.167-0.523 0.4-0.97 0.7-0.453 0.3-0.92 0.567-1.4 0.8-0.487 0.233-0.913 0.35-1.28 0.35v0c-0.7 0-1.323-0.35-1.87-1.05-0.553-0.7-0.913-1.417-1.08-2.15v0c-0.133 0.133-0.44 0.383-0.92 0.75-0.487 0.367-1.047 0.74-1.68 1.12-0.633 0.387-1.257 0.72-1.87 1-0.62 0.287-1.147 0.43-1.58 0.43v0c-1.6 0-2.95-0.543-4.05-1.63-1.1-1.08-1.65-2.403-1.65-3.97v0c0-1 0.277-1.86 0.83-2.58 0.547-0.713 1.087-1.17 1.62-1.37v0c0.933-0.333 1.977-0.693 3.13-1.08 1.147-0.38 2.22-0.753 3.22-1.12 1-0.367 1.733-0.65 2.2-0.85v0c0.267-0.1 0.433-0.227 0.5-0.38 0.067-0.147 0.1-0.437 0.1-0.87v0-1.3c0-0.733-0.183-1.46-0.55-2.18-0.367-0.713-0.867-1.313-1.5-1.8-0.633-0.48-1.35-0.72-2.15-0.72v0c-0.833 0-1.45 0.267-1.85 0.8-0.4 0.533-0.683 1.283-0.85 2.25v0c-0.3 1.567-1.067 2.35-2.3 2.35v0c-0.533 0-0.94-0.217-1.22-0.65-0.287-0.433-0.43-0.9-0.43-1.4v0c0-0.1 0.033-0.293 0.1-0.58 0.067-0.28 0.15-0.487 0.25-0.62v0c0.5-0.467 1.217-1.017 2.15-1.65 0.933-0.633 1.993-1.183 3.18-1.65 1.18-0.467 2.353-0.7 3.52-0.7zM102.45-2.25v0c0.567 0 1.183-0.133 1.85-0.4 0.667-0.267 1.233-0.56 1.7-0.88 0.467-0.313 0.7-0.553 0.7-0.72v0-6.65c-0.633 0.2-1.433 0.45-2.4 0.75-0.967 0.3-1.683 0.533-2.15 0.7v0c-0.867 0.333-1.583 0.817-2.15 1.45-0.567 0.633-0.85 1.417-0.85 2.35v0c0 0.9 0.317 1.69 0.95 2.37 0.633 0.687 1.417 1.03 2.35 1.03zM129.9-21.4v0c1.467 0 2.66 0.307 3.58 0.92 0.913 0.62 1.57 1.663 1.97 3.13v0c1.067-0.967 2.243-1.883 3.53-2.75 1.28-0.867 2.503-1.3 3.67-1.3v0c1.767 0 3.1 0.367 4 1.1 0.9 0.733 1.51 1.867 1.83 3.4 0.313 1.533 0.47 3.483 0.47 5.85v0 5.4c0 0.733 0.01 1.417 0.03 2.05 0.013 0.633 0.087 1.15 0.22 1.55v0c0.067 0.167 0.31 0.317 0.73 0.45 0.413 0.133 0.853 0.223 1.32 0.27 0.467 0.053 0.8 0.08 1 0.08v0c0.1 0.133 0.16 0.367 0.18 0.7 0.013 0.333-0.047 0.567-0.18 0.7v0c-1-0.067-1.873-0.127-2.62-0.18-0.753-0.047-1.613-0.07-2.58-0.07v0c-0.933 0-1.783 0.023-2.55 0.07-0.767 0.053-1.65 0.113-2.65 0.18v0c-0.133-0.133-0.19-0.367-0.17-0.7 0.013-0.333 0.07-0.567 0.17-0.7v0c0.2 0 0.543-0.027 1.03-0.08 0.48-0.047 0.937-0.137 1.37-0.27 0.433-0.133 0.667-0.283 0.7-0.45v0c0.1-0.333 0.16-0.76 0.18-1.28 0.013-0.513 0.02-1.087 0.02-1.72v0c0-0.1 0-0.2 0-0.3 0-0.1 0-0.2 0-0.3v0-5.25c0-1.633-0.107-3.017-0.32-4.15-0.22-1.133-0.647-2-1.28-2.6-0.633-0.6-1.617-0.9-2.95-0.9v0c-0.8 0-1.567 0.207-2.3 0.62-0.733 0.42-1.333 0.853-1.8 1.3-0.467 0.453-0.7 0.747-0.7 0.88v0c0 0.033 0.01 0.123 0.03 0.27 0.013 0.153 0.02 0.263 0.02 0.33v0c0.067 0.467 0.117 1.05 0.15 1.75 0.033 0.7 0.05 1.283 0.05 1.75v0 6c0 0.733 0.01 1.417 0.03 2.05 0.013 0.633 0.087 1.15 0.22 1.55v0c0.067 0.167 0.31 0.317 0.73 0.45 0.413 0.133 0.853 0.223 1.32 0.27 0.467 0.053 0.8 0.08 1 0.08v0c0.1 0.133 0.16 0.367 0.18 0.7 0.013 0.333-0.047 0.567-0.18 0.7v0c-1-0.067-1.873-0.127-2.62-0.18-0.753-0.047-1.613-0.07-2.58-0.07v0c-0.933 0-1.783 0.023-2.55 0.07-0.767 0.053-1.65 0.113-2.65 0.18v0c-0.133-0.133-0.19-0.367-0.17-0.7 0.013-0.333 0.07-0.567 0.17-0.7v0c0.2 0 0.543-0.027 1.03-0.08 0.48-0.047 0.937-0.137 1.37-0.27 0.433-0.133 0.667-0.283 0.7-0.45v0c0.133-0.4 0.21-0.917 0.23-1.55 0.013-0.633 0.02-1.317 0.02-2.05v0-5c0-2.967-0.323-5.023-0.97-6.17-0.653-1.153-1.863-1.73-3.63-1.73v0c-0.733 0-1.45 0.183-2.15 0.55-0.7 0.367-1.273 0.76-1.72 1.18-0.453 0.413-0.68 0.737-0.68 0.97v0 10.2c0 0.733 0.01 1.417 0.03 2.05 0.013 0.633 0.087 1.15 0.22 1.55v0c0.067 0.167 0.31 0.317 0.73 0.45 0.413 0.133 0.853 0.223 1.32 0.27 0.467 0.053 0.8 0.08 1 0.08v0c0.1 0.133 0.16 0.367 0.18 0.7 0.013 0.333-0.047 0.567-0.18 0.7v0c-1-0.067-1.873-0.127-2.62-0.18-0.753-0.047-1.613-0.07-2.58-0.07v0c-0.933 0-1.783 0.023-2.55 0.07-0.767 0.053-1.65 0.113-2.65 0.18v0c-0.133-0.133-0.19-0.367-0.17-0.7 0.013-0.333 0.07-0.567 0.17-0.7v0c0.2 0 0.543-0.027 1.03-0.08 0.48-0.047 0.937-0.137 1.37-0.27 0.433-0.133 0.667-0.283 0.7-0.45v0c0.133-0.4 0.21-0.917 0.23-1.55 0.013-0.633 0.02-1.317 0.02-2.05v0-8.9c0-0.333-0.007-0.8-0.02-1.4-0.02-0.6-0.097-1.05-0.23-1.35v0c-0.1-0.3-0.383-0.51-0.85-0.63-0.467-0.113-0.933-0.18-1.4-0.2-0.467-0.013-0.767-0.02-0.9-0.02v0c-0.033-0.067-0.067-0.267-0.1-0.6-0.033-0.333 0-0.567 0.1-0.7v0c1.267-0.167 2.5-0.417 3.7-0.75 1.2-0.333 2.283-0.767 3.25-1.3v0c0.133 0 0.26 0.1 0.38 0.3 0.113 0.2 0.17 0.367 0.17 0.5v0c0 0.1-0.023 0.333-0.07 0.7-0.053 0.367-0.103 0.733-0.15 1.1-0.053 0.367-0.08 0.617-0.08 0.75v0c0 0.133 0.033 0.2 0.1 0.2v0c0.033 0 0.083-0.033 0.15-0.1v0c0.4-0.367 0.933-0.81 1.6-1.33 0.667-0.513 1.427-0.98 2.28-1.4 0.847-0.413 1.703-0.62 2.57-0.62zM168.45-21.4v0c1.467 0 2.66 0.307 3.58 0.92 0.913 0.62 1.57 1.663 1.97 3.13v0c1.067-0.967 2.243-1.883 3.53-2.75 1.28-0.867 2.503-1.3 3.67-1.3v0c1.767 0 3.1 0.367 4 1.1 0.9 0.733 1.51 1.867 1.83 3.4 0.313 1.533 0.47 3.483 0.47 5.85v0 5.4c0 0.733 0.01 1.417 0.03 2.05 0.013 0.633 0.087 1.15 0.22 1.55v0c0.067 0.167 0.31 0.317 0.73 0.45 0.413 0.133 0.853 0.223 1.32 0.27 0.467 0.053 0.8 0.08 1 0.08v0c0.1 0.133 0.16 0.367 0.18 0.7 0.013 0.333-0.047 0.567-0.18 0.7v0c-1-0.067-1.873-0.127-2.62-0.18-0.753-0.047-1.613-0.07-2.58-0.07v0c-0.933 0-1.783 0.023-2.55 0.07-0.767 0.053-1.65 0.113-2.65 0.18v0c-0.133-0.133-0.19-0.367-0.17-0.7 0.013-0.333 0.07-0.567 0.17-0.7v0c0.2 0 0.543-0.027 1.03-0.08 0.48-0.047 0.937-0.137 1.37-0.27 0.433-0.133 0.667-0.283 0.7-0.45v0c0.1-0.333 0.16-0.76 0.18-1.28 0.013-0.513 0.02-1.087 0.02-1.72v0c0-0.1 0-0.2 0-0.3 0-0.1 0-0.2 0-0.3v0-5.25c0-1.633-0.107-3.017-0.32-4.15-0.22-1.133-0.647-2-1.28-2.6-0.633-0.6-1.617-0.9-2.95-0.9v0c-0.8 0-1.567 0.207-2.3 0.62-0.733 0.42-1.333 0.853-1.8 1.3-0.467 0.453-0.7 0.747-0.7 0.88v0c0 0.033 0.01 0.123 0.03 0.27 0.013 0.153 0.02 0.263 0.02 0.33v0c0.067 0.467 0.117 1.05 0.15 1.75 0.033 0.7 0.05 1.283 0.05 1.75v0 6c0 0.733 0.01 1.417 0.03 2.05 0.013 0.633 0.087 1.15 0.22 1.55v0c0.067 0.167 0.31 0.317 0.73 0.45 0.413 0.133 0.853 0.223 1.32 0.27 0.467 0.053 0.8 0.08 1 0.08v0c0.1 0.133 0.16 0.367 0.18 0.7 0.013 0.333-0.047 0.567-0.18 0.7v0c-1-0.067-1.873-0.127-2.62-0.18-0.753-0.047-1.613-0.07-2.58-0.07v0c-0.933 0-1.783 0.023-2.55 0.07-0.767 0.053-1.65 0.113-2.65 0.18v0c-0.133-0.133-0.19-0.367-0.17-0.7 0.013-0.333 0.07-0.567 0.17-0.7v0c0.2 0 0.543-0.027 1.03-0.08 0.48-0.047 0.937-0.137 1.37-0.27 0.433-0.133 0.667-0.283 0.7-0.45v0c0.133-0.4 0.21-0.917 0.23-1.55 0.013-0.633 0.02-1.317 0.02-2.05v0-5c0-2.967-0.323-5.023-0.97-6.17-0.653-1.153-1.863-1.73-3.63-1.73v0c-0.733 0-1.45 0.183-2.15 0.55-0.7 0.367-1.273 0.76-1.72 1.18-0.453 0.413-0.68 0.737-0.68 0.97v0 10.2c0 0.733 0.01 1.417 0.03 2.05 0.013 0.633 0.087 1.15 0.22 1.55v0c0.067 0.167 0.31 0.317 0.73 0.45 0.413 0.133 0.853 0.223 1.32 0.27 0.467 0.053 0.8 0.08 1 0.08v0c0.1 0.133 0.16 0.367 0.18 0.7 0.013 0.333-0.047 0.567-0.18 0.7v0c-1-0.067-1.873-0.127-2.62-0.18-0.753-0.047-1.613-0.07-2.58-0.07v0c-0.933 0-1.783 0.023-2.55 0.07-0.767 0.053-1.65 0.113-2.65 0.18v0c-0.133-0.133-0.19-0.367-0.17-0.7 0.013-0.333 0.07-0.567 0.17-0.7v0c0.2 0 0.543-0.027 1.03-0.08 0.48-0.047 0.937-0.137 1.37-0.27 0.433-0.133 0.667-0.283 0.7-0.45v0c0.133-0.4 0.21-0.917 0.23-1.55 0.013-0.633 0.02-1.317 0.02-2.05v0-8.9c0-0.333-0.007-0.8-0.02-1.4-0.02-0.6-0.097-1.05-0.23-1.35v0c-0.1-0.3-0.383-0.51-0.85-0.63-0.467-0.113-0.933-0.18-1.4-0.2-0.467-0.013-0.767-0.02-0.9-0.02v0c-0.033-0.067-0.067-0.267-0.1-0.6-0.033-0.333 0-0.567 0.1-0.7v0c1.267-0.167 2.5-0.417 3.7-0.75 1.2-0.333 2.283-0.767 3.25-1.3v0c0.133 0 0.26 0.1 0.38 0.3 0.113 0.2 0.17 0.367 0.17 0.5v0c0 0.1-0.023 0.333-0.07 0.7-0.053 0.367-0.103 0.733-0.15 1.1-0.053 0.367-0.08 0.617-0.08 0.75v0c0 0.133 0.033 0.2 0.1 0.2v0c0.033 0 0.083-0.033 0.15-0.1v0c0.4-0.367 0.933-0.81 1.6-1.33 0.667-0.513 1.427-0.98 2.28-1.4 0.847-0.413 1.703-0.62 2.57-0.62zM203.15-21.3v0c0.933 0 1.81 0.3 2.63 0.9 0.813 0.6 1.47 1.4 1.97 2.4 0.5 1 0.75 2.133 0.75 3.4v0 10.05c0 0.633 0.117 1.173 0.35 1.62 0.233 0.453 0.617 0.68 1.15 0.68v0c0.467 0 0.833-0.1 1.1-0.3 0.267-0.2 0.433-0.317 0.5-0.35v0c0.067 0 0.117 0.05 0.15 0.15 0.033 0.1 0.05 0.183 0.05 0.25v0c0 0.367-0.083 0.683-0.25 0.95v0c-0.2 0.167-0.523 0.4-0.97 0.7-0.453 0.3-0.92 0.567-1.4 0.8-0.487 0.233-0.913 0.35-1.28 0.35v0c-0.7 0-1.323-0.35-1.87-1.05-0.553-0.7-0.913-1.417-1.08-2.15v0c-0.133 0.133-0.44 0.383-0.92 0.75-0.487 0.367-1.047 0.74-1.68 1.12-0.633 0.387-1.257 0.72-1.87 1-0.62 0.287-1.147 0.43-1.58 0.43v0c-1.6 0-2.95-0.543-4.05-1.63-1.1-1.08-1.65-2.403-1.65-3.97v0c0-1 0.277-1.86 0.83-2.58 0.547-0.713 1.087-1.17 1.62-1.37v0c0.933-0.333 1.977-0.693 3.13-1.08 1.147-0.38 2.22-0.753 3.22-1.12 1-0.367 1.733-0.65 2.2-0.85v0c0.267-0.1 0.433-0.227 0.5-0.38 0.067-0.147 0.1-0.437 0.1-0.87v0-1.3c0-0.733-0.183-1.46-0.55-2.18-0.367-0.713-0.867-1.313-1.5-1.8-0.633-0.48-1.35-0.72-2.15-0.72v0c-0.833 0-1.45 0.267-1.85 0.8-0.4 0.533-0.683 1.283-0.85 2.25v0c-0.3 1.567-1.067 2.35-2.3 2.35v0c-0.533 0-0.94-0.217-1.22-0.65-0.287-0.433-0.43-0.9-0.43-1.4v0c0-0.1 0.033-0.293 0.1-0.58 0.067-0.28 0.15-0.487 0.25-0.62v0c0.5-0.467 1.217-1.017 2.15-1.65 0.933-0.633 1.993-1.183 3.18-1.65 1.18-0.467 2.353-0.7 3.52-0.7zM200.55-2.25v0c0.567 0 1.183-0.133 1.85-0.4 0.667-0.267 1.233-0.56 1.7-0.88 0.467-0.313 0.7-0.553 0.7-0.72v0-6.65c-0.633 0.2-1.433 0.45-2.4 0.75-0.967 0.3-1.683 0.533-2.15 0.7v0c-0.867 0.333-1.583 0.817-2.15 1.45-0.567 0.633-0.85 1.417-0.85 2.35v0c0 0.9 0.317 1.69 0.95 2.37 0.633 0.687 1.417 1.03 2.35 1.03zM225.95-21.4v0c0.533 0 1.167 0.057 1.9 0.17 0.733 0.12 1.217 0.23 1.45 0.33v0c0.167 0 0.25-0.333 0.25-1v0-5.35c0-0.367-0.007-0.81-0.02-1.33-0.02-0.513-0.097-0.92-0.23-1.22v0c-0.133-0.367-0.5-0.6-1.1-0.7-0.6-0.1-1.233-0.15-1.9-0.15v0c-0.033 0-0.057-0.21-0.07-0.63-0.02-0.413 0.02-0.637 0.12-0.67v0c1.233-0.133 2.443-0.377 3.63-0.73 1.18-0.347 2.287-0.753 3.32-1.22v0c0.133 0 0.26 0.09 0.38 0.27 0.113 0.187 0.17 0.363 0.17 0.53v0c0 0-0.09 0.367-0.27 1.1-0.187 0.733-0.28 1.783-0.28 3.15v0 20.9c0 0.933 0.027 1.873 0.08 2.82 0.047 0.953 0.137 1.613 0.27 1.98v0c0.167 0.367 0.56 0.59 1.18 0.67 0.613 0.087 1.087 0.147 1.42 0.18v0c0.133 0 0.217 0 0.25 0v0c0.067 0.033 0.11 0.127 0.13 0.28 0.013 0.147 0.02 0.253 0.02 0.32v0c0 0.033-0.023 0.157-0.07 0.37-0.053 0.22-0.147 0.33-0.28 0.33v0c-0.833 0.033-1.74 0.167-2.72 0.4-0.987 0.233-1.83 0.46-2.53 0.68-0.7 0.213-1.067 0.32-1.1 0.32v0c-0.133 0-0.233-0.117-0.3-0.35-0.067-0.233-0.1-0.433-0.1-0.6v0-1.7c0-0.3-0.05-0.4-0.15-0.3v0c-0.233 0.267-0.723 0.633-1.47 1.1-0.753 0.467-1.58 0.89-2.48 1.27-0.9 0.387-1.75 0.58-2.55 0.58v0c-1.467 0-2.857-0.46-4.17-1.38-1.32-0.913-2.387-2.163-3.2-3.75-0.82-1.58-1.23-3.353-1.23-5.32v0c0-1.6 0.393-3.093 1.18-4.48 0.78-1.38 1.78-2.58 3-3.6 1.213-1.013 2.487-1.813 3.82-2.4 1.333-0.58 2.55-0.87 3.65-0.87zM224.35-19.35v0c-1.233 0-2.29 0.39-3.17 1.17-0.887 0.787-1.57 1.797-2.05 3.03-0.487 1.233-0.73 2.533-0.73 3.9v0c0 1.533 0.267 2.95 0.8 4.25 0.533 1.3 1.317 2.35 2.35 3.15 1.033 0.8 2.283 1.2 3.75 1.2v0c1.1 0 2.083-0.227 2.95-0.68 0.867-0.447 1.3-0.87 1.3-1.27v0-12.35c0-0.567-0.523-1.107-1.57-1.62-1.053-0.52-2.263-0.78-3.63-0.78z" fill="#6b7280" fill-rule="nonzero" stroke="none" stroke-width="1" stroke-linecap="butt" stroke-linejoin="miter" stroke-miterlimit="10" stroke-dasharray="" stroke-dashoffset="0" font-family="none" font-weight="none" font-size="none" text-anchor="none" style="mix-blend-mode: normal" data-fill-palette-color="primary" opacity="1"></path><path d="M8 5.2v0c0.967 0 1.91-0.027 2.83-0.08 0.913-0.047 1.87-0.087 2.87-0.12v0c0.133 0.133 0.193 0.39 0.18 0.77-0.02 0.387-0.08 0.647-0.18 0.78v0c-0.2 0-0.567 0.023-1.1 0.07-0.533 0.053-1.033 0.13-1.5 0.23-0.467 0.1-0.733 0.25-0.8 0.45v0c-0.1 0.333-0.157 0.767-0.17 1.3-0.02 0.533-0.03 1.117-0.03 1.75v0c0 0.1 0 0.2 0 0.3 0 0.1 0 0.2 0 0.3v0 9.7c0.367-0.233 0.85-0.617 1.45-1.15 0.6-0.533 1.26-1.143 1.98-1.83 0.713-0.68 1.403-1.337 2.07-1.97v0c1.267-1.267 2.257-2.26 2.97-2.98 0.72-0.713 1.313-1.337 1.78-1.87 0.467-0.533 0.95-1.117 1.45-1.75v0c0.167-0.2 0.327-0.45 0.48-0.75 0.147-0.3 0.22-0.567 0.22-0.8v0c0-0.367-0.173-0.627-0.52-0.78-0.353-0.147-0.737-0.23-1.15-0.25-0.42-0.013-0.73-0.02-0.93-0.02v0c-0.067 0-0.117 0-0.15 0v0c-0.067-0.167-0.1-0.4-0.1-0.7 0-0.3 0.033-0.567 0.1-0.8v0c0.9 0.033 1.833 0.083 2.8 0.15 0.967 0.067 1.9 0.1 2.8 0.1v0c1.067 0 1.977-0.033 2.73-0.1 0.747-0.067 1.603-0.117 2.57-0.15v0c0.067 0.133 0.1 0.417 0.1 0.85 0 0.433-0.067 0.65-0.2 0.65v0c-0.133 0-0.49 0.023-1.07 0.07-0.587 0.053-1.22 0.203-1.9 0.45-0.687 0.253-1.313 0.68-1.88 1.28v0c-1.4 1.533-2.69 2.89-3.87 4.07-1.187 1.187-2.363 2.337-3.53 3.45-1.167 1.12-2.467 2.363-3.9 3.73v0c-0.067 0.1-0.067 0.217 0 0.35v0c2.367 2.733 4.577 5.29 6.63 7.67 2.047 2.387 4.003 4.463 5.87 6.23v0c0.6 0.533 1.31 1.017 2.13 1.45 0.813 0.433 1.887 0.7 3.22 0.8v0c0.133 0.133 0.167 0.383 0.1 0.75-0.067 0.367-0.117 0.583-0.15 0.65v0c-1.633 0-3.073-0.05-4.32-0.15-1.253-0.1-2.13-0.233-2.63-0.4v0c-0.333-0.133-0.8-0.35-1.4-0.65-0.6-0.3-1.233-0.783-1.9-1.45v0c-0.333-0.367-1.023-1.127-2.07-2.28-1.053-1.147-2.347-2.587-3.88-4.32-1.533-1.733-3.217-3.65-5.05-5.75v0c-0.067-0.1-0.217-0.15-0.45-0.15v0c-0.133 0-0.267 0.033-0.4 0.1v0 9.1c0 0.1 0 0.2 0 0.3 0 0.1 0 0.2 0 0.3v0c0 0.633 0.01 1.207 0.03 1.72 0.013 0.52 0.07 0.947 0.17 1.28v0c0.067 0.167 0.333 0.317 0.8 0.45 0.467 0.133 0.967 0.223 1.5 0.27 0.533 0.053 0.9 0.08 1.1 0.08v0c0.1 0.133 0.16 0.39 0.18 0.77 0.013 0.387-0.047 0.647-0.18 0.78v0c-1-0.067-1.957-0.127-2.87-0.18-0.92-0.047-1.863-0.07-2.83-0.07v0c-0.933 0-1.883 0.023-2.85 0.07-0.967 0.053-1.95 0.113-2.95 0.18v0c-0.133-0.133-0.193-0.393-0.18-0.78 0.02-0.38 0.08-0.637 0.18-0.77v0c0.2 0 0.567-0.027 1.1-0.08 0.533-0.047 1.043-0.137 1.53-0.27 0.48-0.133 0.737-0.283 0.77-0.45v0c0.133-0.4 0.21-0.917 0.23-1.55 0.013-0.633 0.02-1.317 0.02-2.05v0-20.55c0-0.733-0.007-1.427-0.02-2.08-0.02-0.647-0.097-1.17-0.23-1.57v0c-0.033-0.2-0.29-0.35-0.77-0.45-0.487-0.1-0.997-0.177-1.53-0.23-0.533-0.047-0.9-0.07-1.1-0.07v0c-0.1-0.133-0.16-0.393-0.18-0.78-0.013-0.38 0.047-0.637 0.18-0.77v0c1 0.033 1.983 0.073 2.95 0.12 0.967 0.053 1.917 0.08 2.85 0.08zM43.8 16v0c0.933 0 1.81 0.3 2.63 0.9 0.813 0.6 1.47 1.4 1.97 2.4 0.5 1 0.75 2.133 0.75 3.4v0 10.05c0 0.633 0.117 1.173 0.35 1.62 0.233 0.453 0.617 0.68 1.15 0.68v0c0.467 0 0.833-0.1 1.1-0.3 0.267-0.2 0.433-0.317 0.5-0.35v0c0.067 0 0.117 0.05 0.15 0.15 0.033 0.1 0.05 0.183 0.05 0.25v0c0 0.367-0.083 0.683-0.25 0.95v0c-0.2 0.167-0.523 0.4-0.97 0.7-0.453 0.3-0.92 0.567-1.4 0.8-0.487 0.233-0.913 0.35-1.28 0.35v0c-0.7 0-1.323-0.35-1.87-1.05-0.553-0.7-0.913-1.417-1.08-2.15v0c-0.133 0.133-0.44 0.383-0.92 0.75-0.487 0.367-1.047 0.74-1.68 1.12-0.633 0.387-1.257 0.72-1.87 1-0.62 0.287-1.147 0.43-1.58 0.43v0c-1.6 0-2.95-0.543-4.05-1.63-1.1-1.08-1.65-2.403-1.65-3.97v0c0-1 0.277-1.86 0.83-2.58 0.547-0.713 1.087-1.17 1.62-1.37v0c0.933-0.333 1.977-0.693 3.13-1.08 1.147-0.38 2.22-0.753 3.22-1.12 1-0.367 1.733-0.65 2.2-0.85v0c0.267-0.1 0.433-0.227 0.5-0.38 0.067-0.147 0.1-0.437 0.1-0.87v0-1.3c0-0.733-0.183-1.46-0.55-2.18-0.367-0.713-0.867-1.313-1.5-1.8-0.633-0.48-1.35-0.72-2.15-0.72v0c-0.833 0-1.45 0.267-1.85 0.8-0.4 0.533-0.683 1.283-0.85 2.25v0c-0.3 1.567-1.067 2.35-2.3 2.35v0c-0.533 0-0.94-0.217-1.22-0.65-0.287-0.433-0.43-0.9-0.43-1.4v0c0-0.1 0.033-0.293 0.1-0.58 0.067-0.28 0.15-0.487 0.25-0.62v0c0.5-0.467 1.217-1.017 2.15-1.65 0.933-0.633 1.993-1.183 3.18-1.65 1.18-0.467 2.353-0.7 3.52-0.7zM41.2 35.05v0c0.567 0 1.183-0.133 1.85-0.4 0.667-0.267 1.233-0.56 1.7-0.88 0.467-0.313 0.7-0.553 0.7-0.72v0-6.65c-0.633 0.2-1.433 0.45-2.4 0.75-0.967 0.3-1.683 0.533-2.15 0.7v0c-0.867 0.333-1.583 0.817-2.15 1.45-0.567 0.633-0.85 1.417-0.85 2.35v0c0 0.9 0.317 1.69 0.95 2.37 0.633 0.687 1.417 1.03 2.35 1.03zM60.3 16.25v0h6.25c1.333 0 2.41-0.033 3.23-0.1 0.813-0.067 1.72-0.167 2.72-0.3v0c0.1 0.167 0.15 0.34 0.15 0.52 0 0.187 0 0.363 0 0.53v0c0 0.067 0 0.117 0 0.15v0c0 0-0.233 0.333-0.7 1-0.467 0.667-1.083 1.55-1.85 2.65-0.767 1.1-1.607 2.3-2.52 3.6-0.92 1.3-1.847 2.607-2.78 3.92-0.933 1.32-1.783 2.537-2.55 3.65-0.767 1.12-1.383 2.013-1.85 2.68-0.467 0.667-0.7 1.017-0.7 1.05v0h6.85c1.5 0 2.693-0.477 3.58-1.43 0.88-0.947 1.47-1.937 1.77-2.97v0c0.033-0.2 0.15-0.3 0.35-0.3v0c0.5 0 0.917 0.2 1.25 0.6v0c0 0-0.133 0.323-0.4 0.97-0.267 0.653-0.567 1.43-0.9 2.33-0.333 0.9-0.633 1.733-0.9 2.5v0h-15.85c-0.167-0.067-0.333-0.2-0.5-0.4-0.167-0.2-0.25-0.4-0.25-0.6v0c0-0.033 0-0.083 0-0.15 0-0.067 0.017-0.117 0.05-0.15v0l12.55-18.05-6.85-0.05c-0.933 0-1.64 0.223-2.12 0.67-0.487 0.453-0.837 0.953-1.05 1.5-0.22 0.553-0.397 0.98-0.53 1.28v0c-0.133 0.267-0.483 0.4-1.05 0.4v0c-0.367 0-0.55-0.033-0.55-0.1v0c0.1-0.367 0.243-1.1 0.43-2.2 0.18-1.1 0.303-2.3 0.37-3.6v0c0 0 0.243 0.033 0.73 0.1 0.48 0.067 1.063 0.133 1.75 0.2 0.68 0.067 1.303 0.1 1.87 0.1zM80.25 25.2v0c-0.033 2.067 0.317 3.8 1.05 5.2 0.733 1.4 1.717 2.44 2.95 3.12 1.233 0.687 2.567 1.03 4 1.03v0c0.9 0 1.717-0.16 2.45-0.48 0.733-0.313 1.35-0.68 1.85-1.1 0.5-0.413 0.85-0.737 1.05-0.97v0c0.033 0 0.11 0.057 0.23 0.17 0.113 0.12 0.17 0.28 0.17 0.48v0c0 0.267-0.1 0.567-0.3 0.9v0c-0.3 0.467-0.767 1.023-1.4 1.67-0.633 0.653-1.433 1.23-2.4 1.73-0.967 0.5-2.083 0.75-3.35 0.75v0c-1.9 0-3.583-0.45-5.05-1.35-1.467-0.9-2.617-2.117-3.45-3.65-0.833-1.533-1.25-3.25-1.25-5.15v0c0-1.633 0.293-3.16 0.88-4.58 0.58-1.413 1.347-2.647 2.3-3.7 0.947-1.047 1.987-1.87 3.12-2.47 1.133-0.6 2.233-0.9 3.3-0.9v0c1.467 0 2.677 0.25 3.63 0.75 0.947 0.5 1.697 1.117 2.25 1.85 0.547 0.733 0.93 1.467 1.15 2.2 0.213 0.733 0.32 1.35 0.32 1.85v0c0 0.7-0.083 1.25-0.25 1.65-0.167 0.4-0.483 0.617-0.95 0.65v0c-0.3 0.033-0.89 0.057-1.77 0.07-0.887 0.02-1.897 0.047-3.03 0.08-1.133 0.033-2.25 0.067-3.35 0.1-1.1 0.033-2.033 0.057-2.8 0.07-0.767 0.02-1.217 0.03-1.35 0.03zM80.5 23.4v0h7.95c0.3 0 0.56-0.083 0.78-0.25 0.213-0.167 0.337-0.467 0.37-0.9v0c0.033-0.4-0.083-0.967-0.35-1.7-0.267-0.733-0.69-1.4-1.27-2-0.587-0.6-1.38-0.9-2.38-0.9v0c-1.033 0-1.883 0.29-2.55 0.87-0.667 0.587-1.19 1.253-1.57 2-0.387 0.753-0.653 1.42-0.8 2-0.153 0.587-0.213 0.88-0.18 0.88zM111.4 15.9v0c1.467 0 2.66 0.307 3.58 0.92 0.913 0.62 1.57 1.663 1.97 3.13v0c1.067-0.967 2.243-1.883 3.53-2.75 1.28-0.867 2.503-1.3 3.67-1.3v0c1.767 0 3.1 0.367 4 1.1 0.9 0.733 1.51 1.867 1.83 3.4 0.313 1.533 0.47 3.483 0.47 5.85v0 5.4c0 0.733 0.01 1.417 0.03 2.05 0.013 0.633 0.087 1.15 0.22 1.55v0c0.067 0.167 0.31 0.317 0.73 0.45 0.413 0.133 0.853 0.223 1.32 0.27 0.467 0.053 0.8 0.08 1 0.08v0c0.1 0.133 0.16 0.367 0.18 0.7 0.013 0.333-0.047 0.567-0.18 0.7v0c-1-0.067-1.873-0.127-2.62-0.18-0.753-0.047-1.613-0.07-2.58-0.07v0c-0.933 0-1.783 0.023-2.55 0.07-0.767 0.053-1.65 0.113-2.65 0.18v0c-0.133-0.133-0.19-0.367-0.17-0.7 0.013-0.333 0.07-0.567 0.17-0.7v0c0.2 0 0.543-0.027 1.03-0.08 0.48-0.047 0.937-0.137 1.37-0.27 0.433-0.133 0.667-0.283 0.7-0.45v0c0.1-0.333 0.16-0.76 0.18-1.28 0.013-0.513 0.02-1.087 0.02-1.72v0c0-0.1 0-0.2 0-0.3 0-0.1 0-0.2 0-0.3v0-5.25c0-1.633-0.107-3.017-0.32-4.15-0.22-1.133-0.647-2-1.28-2.6-0.633-0.6-1.617-0.9-2.95-0.9v0c-0.8 0-1.567 0.207-2.3 0.62-0.733 0.42-1.333 0.853-1.8 1.3-0.467 0.453-0.7 0.747-0.7 0.88v0c0 0.033 0.01 0.123 0.03 0.27 0.013 0.153 0.02 0.263 0.02 0.33v0c0.067 0.467 0.117 1.05 0.15 1.75 0.033 0.7 0.05 1.283 0.05 1.75v0 6c0 0.733 0.01 1.417 0.03 2.05 0.013 0.633 0.087 1.15 0.22 1.55v0c0.067 0.167 0.31 0.317 0.73 0.45 0.413 0.133 0.853 0.223 1.32 0.27 0.467 0.053 0.8 0.08 1 0.08v0c0.1 0.133 0.16 0.367 0.18 0.7 0.013 0.333-0.047 0.567-0.18 0.7v0c-1-0.067-1.873-0.127-2.62-0.18-0.753-0.047-1.613-0.07-2.58-0.07v0c-0.933 0-1.783 0.023-2.55 0.07-0.767 0.053-1.65 0.113-2.65 0.18v0c-0.133-0.133-0.19-0.367-0.17-0.7 0.013-0.333 0.07-0.567 0.17-0.7v0c0.2 0 0.543-0.027 1.03-0.08 0.48-0.047 0.937-0.137 1.37-0.27 0.433-0.133 0.667-0.283 0.7-0.45v0c0.133-0.4 0.21-0.917 0.23-1.55 0.013-0.633 0.02-1.317 0.02-2.05v0-5c0-2.967-0.323-5.023-0.97-6.17-0.653-1.153-1.863-1.73-3.63-1.73v0c-0.733 0-1.45 0.183-2.15 0.55-0.7 0.367-1.273 0.76-1.72 1.18-0.453 0.413-0.68 0.737-0.68 0.97v0 10.2c0 0.733 0.01 1.417 0.03 2.05 0.013 0.633 0.087 1.15 0.22 1.55v0c0.067 0.167 0.31 0.317 0.73 0.45 0.413 0.133 0.853 0.223 1.32 0.27 0.467 0.053 0.8 0.08 1 0.08v0c0.1 0.133 0.16 0.367 0.18 0.7 0.013 0.333-0.047 0.567-0.18 0.7v0c-1-0.067-1.873-0.127-2.62-0.18-0.753-0.047-1.613-0.07-2.58-0.07v0c-0.933 0-1.783 0.023-2.55 0.07-0.767 0.053-1.65 0.113-2.65 0.18v0c-0.133-0.133-0.19-0.367-0.17-0.7 0.013-0.333 0.07-0.567 0.17-0.7v0c0.2 0 0.543-0.027 1.03-0.08 0.48-0.047 0.937-0.137 1.37-0.27 0.433-0.133 0.667-0.283 0.7-0.45v0c0.133-0.4 0.21-0.917 0.23-1.55 0.013-0.633 0.02-1.317 0.02-2.05v0-8.9c0-0.333-0.007-0.8-0.02-1.4-0.02-0.6-0.097-1.05-0.23-1.35v0c-0.1-0.3-0.383-0.51-0.85-0.63-0.467-0.113-0.933-0.18-1.4-0.2-0.467-0.013-0.767-0.02-0.9-0.02v0c-0.033-0.067-0.067-0.267-0.1-0.6-0.033-0.333 0-0.567 0.1-0.7v0c1.267-0.167 2.5-0.417 3.7-0.75 1.2-0.333 2.283-0.767 3.25-1.3v0c0.133 0 0.26 0.1 0.38 0.3 0.113 0.2 0.17 0.367 0.17 0.5v0c0 0.1-0.023 0.333-0.07 0.7-0.053 0.367-0.103 0.733-0.15 1.1-0.053 0.367-0.08 0.617-0.08 0.75v0c0 0.133 0.033 0.2 0.1 0.2v0c0.033 0 0.083-0.033 0.15-0.1v0c0.4-0.367 0.933-0.81 1.6-1.33 0.667-0.513 1.427-0.98 2.28-1.4 0.847-0.413 1.703-0.62 2.57-0.62zM138.5 8.35v0c0-0.667 0.243-1.243 0.73-1.73 0.48-0.48 1.053-0.72 1.72-0.72v0c0.667 0 1.243 0.24 1.73 0.72 0.48 0.487 0.72 1.063 0.72 1.73v0c0 0.667-0.24 1.24-0.72 1.72-0.487 0.487-1.063 0.73-1.73 0.73v0c-0.667 0-1.24-0.243-1.72-0.73-0.487-0.48-0.73-1.053-0.73-1.72zM143.2 19.8v11.85c0 0.733 0.01 1.417 0.03 2.05 0.013 0.633 0.087 1.15 0.22 1.55v0c0.067 0.167 0.31 0.317 0.73 0.45 0.413 0.133 0.853 0.223 1.32 0.27 0.467 0.053 0.8 0.08 1 0.08v0c0.1 0.133 0.16 0.367 0.18 0.7 0.013 0.333-0.047 0.567-0.18 0.7v0c-1-0.067-1.873-0.127-2.62-0.18-0.753-0.047-1.613-0.07-2.58-0.07v0c-0.933 0-1.783 0.023-2.55 0.07-0.767 0.053-1.65 0.113-2.65 0.18v0c-0.133-0.133-0.19-0.367-0.17-0.7 0.013-0.333 0.07-0.567 0.17-0.7v0c0.2 0 0.543-0.027 1.03-0.08 0.48-0.047 0.937-0.137 1.37-0.27 0.433-0.133 0.667-0.283 0.7-0.45v0c0.133-0.4 0.21-0.917 0.23-1.55 0.013-0.633 0.02-1.317 0.02-2.05v0-9.1c0-0.333-0.007-0.767-0.02-1.3-0.02-0.533-0.097-0.95-0.23-1.25v0c-0.1-0.3-0.383-0.51-0.85-0.63-0.467-0.113-0.933-0.18-1.4-0.2-0.467-0.013-0.767-0.02-0.9-0.02v0c-0.033-0.067-0.067-0.267-0.1-0.6-0.033-0.333 0-0.567 0.1-0.7v0c1.267-0.167 2.5-0.417 3.7-0.75 1.2-0.333 2.283-0.767 3.25-1.3v0c0.133 0 0.26 0.1 0.38 0.3 0.113 0.2 0.17 0.367 0.17 0.5v0c0 0.1-0.033 0.383-0.1 0.85-0.067 0.467-0.123 0.933-0.17 1.4-0.053 0.467-0.08 0.783-0.08 0.95z" fill="#6b7280" fill-rule="nonzero" stroke="none" stroke-width="1" stroke-linecap="butt" stroke-linejoin="miter" stroke-miterlimit="10" stroke-dasharray="" stroke-dashoffset="0" font-family="none" font-weight="none" font-size="none" text-anchor="none" style="mix-blend-mode: normal" data-fill-palette-color="primary" opacity="1"></path></g></svg></g></svg></g><g transform="matrix(1,0,0,1,0,138.91162430338585)"><svg viewBox="0 0 199.14432 23.202605105945516" height="23.202605105945516" width="199.14432"><g transform="matrix(1,0,0,1,0,0)"><svg width="199.14432" viewBox="1.61 -38.82 427.41999999999996 49.81" height="23.202605105945516" data-palette-color="#6b7280"><path d="M28.37 0L19.85 0Q20.17-1.54 20.17-2.45 20.17-3.37 20.13-3.83 20.09-4.3 20.03-4.82 19.97-5.35 19.89-5.99 19.8-6.64 19.73-7.5L19.73-7.5Q19.17-13.33 15.75-17.09L15.75-17.09Q14.23-18.75 12.48-19.62 10.72-20.48 9.58-20.48 8.45-20.48 7.84-20.34L7.84-20.34Q6.47-16.24 6.47-11.77L6.47-11.77Q6.47-7.81 6.88-5.86L6.88-5.86Q7.54-2.93 8.91 0.02L8.91 0.02 1.61 0.02Q2.2-1.44 2.2-6.14 2.2-10.84 2.91-14.93 3.61-19.02 4.75-22.22 5.88-25.42 7.29-27.82 8.69-30.22 10.1-32.02 11.5-33.81 12.74-35.1 13.99-36.38 14.82-37.35L14.82-37.35 22.51-37.35Q21.46-36.16 21.46-34.01L21.46-34.01Q21.46-33.03 21.78-30.81L21.78-30.81 22.39-26.37Q25.73-3.32 28.37 0L28.37 0ZM8.84-22.92L8.84-22.92Q9.79-23.29 10.84-23.29 11.89-23.29 12.73-23.14 13.57-23 14.4-22.66L14.4-22.66Q16.19-21.97 17.38-20.48L17.38-20.48Q16.19-26.76 15.92-28.15L15.92-28.15 15.06-32.42 13.67-30.76Q10.74-27.25 8.84-22.92ZM27.83-24.66L36.84-24.66Q36.4-23.58 36.4-22.3 36.4-21.02 36.59-20.03 36.79-19.04 37.13-17.72L37.13-17.72 39.77-8.35 40.7-5.35Q42.14-9.67 42.6-11.18L42.6-11.18 43.48-14.16Q44.92-19.07 44.92-20.24 44.92-21.41 44.81-21.96 44.7-22.51 44.5-22.95L44.5-22.95Q44.26-23.61 43.55-24.66L43.55-24.66 52.44-24.66Q50.63-22.17 50.02-20.92L50.02-20.92 49.12-19.07Q48.9-18.63 48.51-17.8L48.51-17.8Q43.72-6.88 43.72-3.17L43.72-3.17Q43.72-1.49 44.36 0L44.36 0 35.57 0Q36.15-0.93 36.26-1.75 36.37-2.56 36.37-3.43 36.37-4.3 35.94-5.93 35.5-7.57 34.79-9.64 34.08-11.72 33.16-14.03 32.25-16.33 31.3-18.43L31.3-18.43Q29.15-23.14 27.83-24.66L27.83-24.66ZM73.24-8.3L73.24-8.3Q74.12-7.71 74.12-6.26 74.12-4.81 73.73-3.71 73.33-2.61 72.36-1.66L72.36-1.66Q70.16 0.49 65.67 0.49L65.67 0.49Q60.44 0.49 57.71-3.37L57.71-3.37Q55.29-6.81 55.29-12.67L55.29-12.67Q55.29-18.58 58.56-21.95L58.56-21.95Q61.66-25.15 66.96-25.15L66.96-25.15Q70.65-25.15 72.72-23L72.72-23Q74.36-21.29 74.36-19.06 74.36-16.82 73.49-15.03 72.63-13.23 70.94-11.94L70.94-11.94Q67.48-9.25 61.25-9.11L61.25-9.11Q61.76-4.2 64.33-2.54L64.33-2.54Q65.25-1.95 66.79-1.95 68.33-1.95 70.06-3.56 71.8-5.18 73.24-8.3ZM61.1-12.18L61.1-11.43Q68.82-11.94 68.82-18.9L68.82-18.9Q68.82-21.51 67.26-22.41L67.26-22.41Q66.72-22.71 65.84-22.71 64.96-22.71 64.07-22.17 63.18-21.63 62.52-20.41L62.52-20.41Q61.1-17.75 61.1-12.18L61.1-12.18ZM87.27 0L80.07 0Q81.19-3.86 81.19-13.26L81.19-13.26Q81.19-19.95 80.12-22.39L80.12-22.39Q79.68-23.39 78.56-24.66L78.56-24.66 87.22-24.66Q86.78-23.12 86.52-20.43L86.52-20.43Q88.81-23.32 92.91-24.51L92.91-24.51Q94.67-25.02 95.48-26.12L95.48-26.12Q96.28-24.19 96.28-22.8 96.28-21.41 96.14-20.23 95.99-19.04 95.7-17.92L95.7-17.92Q95.06-15.5 94.01-14.16L94.01-14.16Q93.11-18.92 91.2-19.73L91.2-19.73Q89.01-20.68 86.91-17.14L86.91-17.14Q86.47-16.41 86.17-15.58L86.17-15.58Q86.15-15.01 86.15-14.43 86.15-13.84 86.15-13.26L86.15-13.26Q86.15-3.86 87.27 0L87.27 0ZM117.71-13.04L117.71-13.04 117.64-8.35Q117.64-3.98 118.45-2.39L118.45-2.39Q118.94-1.44 119.59-0.93L119.59-0.93 120.74 0 113.66 0 112.91-2.83Q110.15 0.49 105.04 0.49L105.04 0.49Q102.14 0.49 100.36-1.46L100.36-1.46Q98.79-3.22 98.79-5.62 98.79-8.01 99.93-9.79 101.06-11.57 102.92-12.74L102.92-12.74Q106.58-15.01 112.12-15.11L112.12-15.11 112.12-15.38Q112.12-21.31 110.29-22.34L110.29-22.34Q109.63-22.71 108.6-22.71 107.56-22.71 106.53-22.02 105.51-21.34 104.68-20.26L104.68-20.26Q103.02-18.09 102.31-15.14L102.31-15.14Q100.14-16.43 100.14-20.09L100.14-20.09Q100.14-21.58 100.53-23.44L100.53-23.44Q101.45-23.44 102.28-23.71L102.28-23.71 104.16-24.29Q106.92-25.15 109.56-25.15 112.2-25.15 113.77-24.37 115.35-23.58 116.23-22.05L116.23-22.05Q117.71-19.43 117.71-13.04ZM104.07-5.13Q104.07-3.61 104.76-2.78 105.46-1.95 106.51-1.95 107.56-1.95 108.53-2.5 109.51-3.05 110.29-4L110.29-4Q112.12-6.18 112.12-9.11L112.12-9.11 112.12-12.72Q108.71-12.4 106.48-10.45L106.48-10.45Q104.07-8.35 104.07-5.13L104.07-5.13ZM136.88-0.59L136.88-0.59Q134.51 0.49 132.21 0.49 129.92 0.49 128.41-0.1 126.89-0.68 125.82-1.81L125.82-1.81Q123.57-4.15 123.57-8.28L123.57-8.28Q123.57-16.24 128.14-20.68L128.14-20.68Q132.21-24.66 137.95-24.66L137.95-24.66 143.52-24.66Q142.83-22.29 142.74-20.12 142.64-17.94 142.6-16.56 142.57-15.19 142.54-13.77L142.54-13.77Q142.49-10.94 142.49-7.98 142.49-5.03 142.03-2.26 141.56 0.51 140.8 2.59 140.03 4.66 139.04 6.13 138.05 7.59 136.97 8.59L136.97 8.59Q135.22 10.23 132.9 10.99L132.9 10.99Q132.41 10.79 131.96 10.28 131.51 9.77 131.41 9.28L131.41 9.28Q134.19 8.15 135.83 3.69L135.83 3.69Q136.46 1.95 136.88-0.59ZM137.41-8.15L137.41-8.15 137.49-15.48Q137.49-19.9 137.17-22.17L137.17-22.17Q133.7-21.48 131.7-18.07L131.7-18.07Q129.68-14.58 129.68-9.25L129.68-9.25Q129.68-5.96 130.18-4.59 130.68-3.22 131.37-2.59 132.07-1.95 133.06-1.95 134.05-1.95 134.8-2.34 135.56-2.73 136.14-3.52L136.14-3.52Q137.41-5.2 137.41-8.15ZM165.39-8.3L165.39-8.3Q166.27-7.71 166.27-6.26 166.27-4.81 165.88-3.71 165.49-2.61 164.51-1.66L164.51-1.66Q162.31 0.49 157.82 0.49L157.82 0.49Q152.6 0.49 149.86-3.37L149.86-3.37Q147.45-6.81 147.45-12.67L147.45-12.67Q147.45-18.58 150.72-21.95L150.72-21.95Q153.82-25.15 159.12-25.15L159.12-25.15Q162.8-25.15 164.88-23L164.88-23Q166.51-21.29 166.51-19.06 166.51-16.82 165.65-15.03 164.78-13.23 163.1-11.94L163.1-11.94Q159.63-9.25 153.4-9.11L153.4-9.11Q153.92-4.2 156.48-2.54L156.48-2.54Q157.41-1.95 158.94-1.95 160.48-1.95 162.22-3.56 163.95-5.18 165.39-8.3ZM153.26-12.18L153.26-11.43Q160.97-11.94 160.97-18.9L160.97-18.9Q160.97-21.51 159.41-22.41L159.41-22.41Q158.87-22.71 157.99-22.71 157.11-22.71 156.22-22.17 155.33-21.63 154.67-20.41L154.67-20.41Q153.26-17.75 153.26-12.18L153.26-12.18ZM198.91-22.71Q196.71-22.71 195.74-20.51 194.78-18.31 194.78-13.11L194.78-13.11Q194.78-1.95 198.91-1.95L198.91-1.95Q201.1-1.95 202.07-4.93 203.03-7.91 203.03-13.11 203.03-18.31 202.07-20.51 201.1-22.71 198.91-22.71L198.91-22.71ZM188.63-14.04Q188.63-25.15 198.91-25.15 209.18-25.15 209.18-14.04L209.18-14.04Q209.18-7.3 206.35-3.37L206.35-3.37Q203.59 0.49 198.91 0.49 194.22 0.49 191.46-3.37L191.46-3.37Q188.63-7.3 188.63-14.04L188.63-14.04ZM224.61 0L215.7 0Q216.85-3.93 216.85-15.87L216.85-15.87Q216.85-17.97 216.8-18.59 216.75-19.21 216.36-19.29L216.36-19.29Q214.75-19.65 214.43-21.14L214.43-21.14Q214.36-21.53 214.24-21.97L214.24-21.97 215.8-21.97Q216.48-21.97 216.64-22.28 216.8-22.58 216.8-24L216.8-24Q216.8-26.76 216.59-29.42 216.38-32.08 216.8-33.45 217.21-34.81 218.09-35.79L218.09-35.79Q219.95-37.84 223.34-37.84L223.34-37.84Q224.61-37.84 225.66-37.6 226.71-37.35 227.69-37.35 228.66-37.35 229.4-37.62 230.13-37.89 230.69-38.82L230.69-38.82Q231.01-38.45 231.28-37.51 231.54-36.57 231.54-35.46 231.54-34.35 231.39-33.12 231.23-31.88 230.93-30.71L230.93-30.71Q230.32-28.27 229.23-26.83L229.23-26.83Q228.64-31.81 228.14-33.03 227.64-34.25 227.04-34.7 226.44-35.16 225.27-35.16 224.1-35.16 223.18-33.92 222.27-32.69 222.27-30.54L222.27-30.54 222.27-29.76Q222.27-24.88 222.54-23.86 222.8-22.85 223.27-22.53 223.73-22.22 224.59-22.22L224.59-22.22 229.08-22.22Q228.47-20.02 227.57-19.38L227.57-19.38Q227.13-19.04 226.58-19.04 226.03-19.04 225.71-19.12 225.39-19.19 225.1-19.29L225.1-19.29Q224.37-19.53 223.77-19.53 223.17-19.53 222.85-19.37 222.54-19.21 222.34-18.92L222.34-18.92Q222.05-18.43 222.05-17.36L222.05-17.36 222.05-13.18Q222.05-5.59 222.58-3.69L222.58-3.69Q222.98-2.27 223.59-1.44L223.59-1.44 224.61 0ZM271.12 0L263.91 0Q265.04-3.86 265.04-13.26L265.04-13.26Q265.04-17.19 264.62-18.49 264.21-19.8 263.58-20.4 262.96-21 261.92-21 260.89-21 260.04-20.61 259.2-20.21 258.54-19.58L258.54-19.58Q257.3-18.41 256.52-16.46L256.52-16.46 256.52-11.79Q256.52-4.93 256.78-3.3L256.78-3.3Q257.1-1.15 257.44 0L257.44 0 250.24 0Q250.83-2.05 251.02-5.44L251.02-5.44Q251.46-13.94 251.46-17.96 251.46-21.97 251.44-23.45 251.41-24.93 251.36-26.39L251.36-26.39Q251.24-31.71 250.89-33.07 250.53-34.42 250.23-35.05 249.92-35.67 249.56-36.18L249.56-36.18 248.73-37.33 257.64-37.33Q256.95-34.86 256.85-32.74 256.74-30.62 256.69-29.28 256.64-27.95 256.59-26.49L256.59-26.49Q256.52-23.07 256.52-20.46L256.52-20.46Q258.44-23.71 261.62-24.76L261.62-24.76Q262.74-25.15 264.13-25.15 265.52-25.15 266.66-24.55 267.79-23.95 268.55-22.85L268.55-22.85Q270.11-20.63 270.11-16.77L270.11-16.77 270.11-14.16Q270.11-6.69 270.32-4.8 270.53-2.91 270.6-2.29L270.6-2.29Q270.77-1.22 271.12 0L271.12 0ZM297.31-23.54L297.31-22.36 296.94-11.45Q296.94-4.79 298.11-2.29L298.11-2.29Q298.53-1.39 299.58 0L299.58 0 292.79 0Q292.23-1.66 292.06-4.2L292.06-4.2Q289.23 0.49 284.76 0.49L284.76 0.49Q281.68 0.49 280.05-1.81L280.05-1.81Q278.44-4.03 278.44-7.91L278.44-7.91 278.44-11.21Q278.44-12.3 278.44-13.45L278.44-13.45 278.39-15.67Q278.36-17.8 278.25-18.98 278.14-20.17 278.01-20.96 277.88-21.75 277.68-22.38 277.48-23 277.24-23.54L277.24-23.54 276.7-24.66 283.76-24.66Q283.78-24.27 283.78-23.93L283.78-23.93 283.78-23.22Q283.78-23.22 283.37-10.96L283.37-10.96Q283.37-7.37 283.83-6.08 284.3-4.79 284.94-4.22 285.59-3.66 286.66-3.66L286.66-3.66Q289.57-3.66 291.38-6.84L291.38-6.84Q291.86-7.74 292.18-8.67L292.18-8.67Q292.23-10.03 292.23-11.77L292.23-11.77Q292.23-20.68 290.91-23.54L290.91-23.54 290.38-24.66 297.33-24.66Q297.31-24.05 297.31-23.54L297.31-23.54ZM312.37 0L305.36 0Q306.49-3.86 306.49-13.26L306.49-13.26Q306.49-19.95 305.31-22.39L305.31-22.39Q305.02-23 304.66-23.54L304.66-23.54 303.85-24.66 312.32-24.66Q311.95-23.22 311.83-22.36L311.83-22.36 311.66-20.9Q314.49-25.15 318.88-25.15 323.26-25.15 324.55-20.39L324.55-20.39Q326.48-23.68 329.66-24.76L329.66-24.76Q330.78-25.15 332.18-25.15 333.59-25.15 334.72-24.55 335.86-23.95 336.64-22.85L336.64-22.85Q338.18-20.63 338.18-16.77L338.18-16.77 338.18-14.16Q338.18-6.69 338.38-4.8 338.59-2.91 338.69-2.29L338.69-2.29Q338.83-1.22 339.18 0L339.18 0 331.97 0Q333.05-3.69 333.05-13.26L333.05-13.26Q333.05-17.14 332.66-18.47 332.27-19.8 331.64-20.4 331.02-21 329.95-21L329.95-21Q326.8-21 324.94-17.29L324.94-17.29 324.94-14.16Q324.94-6.69 325.15-4.8 325.36-2.91 325.46-2.29L325.46-2.29Q325.6-1.22 325.94 0L325.94 0 318.74 0Q319.84-3.76 319.84-13.26L319.84-13.26Q319.84-17.24 319.45-18.52 319.06-19.8 318.45-20.4 317.84-21 316.78-21 315.71-21 314.86-20.58 314.01-20.17 313.32-19.48L313.32-19.48Q312.03-18.21 311.3-16.21L311.3-16.21Q311.25-15.5 311.25-14.75L311.25-14.75 311.25-13.26Q311.25-3.86 312.37 0L312.37 0ZM324.04-14.7L324.14-15.14 324.04-14.7ZM363.27-13.04L363.27-13.04 363.2-8.35Q363.2-3.98 364-2.39L364-2.39Q364.49-1.44 365.15-0.93L365.15-0.93 366.3 0 359.22 0 358.46-2.83Q355.7 0.49 350.6 0.49L350.6 0.49Q347.69 0.49 345.91-1.46L345.91-1.46Q344.35-3.22 344.35-5.62 344.35-8.01 345.49-9.79 346.62-11.57 348.48-12.74L348.48-12.74Q352.14-15.01 357.68-15.11L357.68-15.11 357.68-15.38Q357.68-21.31 355.85-22.34L355.85-22.34Q355.19-22.71 354.15-22.71 353.11-22.71 352.09-22.02 351.06-21.34 350.23-20.26L350.23-20.26Q348.57-18.09 347.87-15.14L347.87-15.14Q345.69-16.43 345.69-20.09L345.69-20.09Q345.69-21.58 346.08-23.44L346.08-23.44Q347.01-23.44 347.84-23.71L347.84-23.71 349.72-24.29Q352.48-25.15 355.12-25.15 357.75-25.15 359.33-24.37 360.9-23.58 361.78-22.05L361.78-22.05Q363.27-19.43 363.27-13.04ZM349.62-5.13Q349.62-3.61 350.32-2.78 351.01-1.95 352.06-1.95 353.11-1.95 354.09-2.5 355.07-3.05 355.85-4L355.85-4Q357.68-6.18 357.68-9.11L357.68-9.11 357.68-12.72Q354.26-12.4 352.04-10.45L352.04-10.45Q349.62-8.35 349.62-5.13L349.62-5.13ZM377.18 0L370.18 0Q371.3-3.86 371.3-13.26L371.3-13.26Q371.3-19.95 370.13-22.39L370.13-22.39Q369.84-23 369.47-23.54L369.47-23.54 368.66-24.66 377.14-24.66Q376.77-23.44 376.65-22.36L376.65-22.36 376.45-20.61Q379.41-25.15 383.97-25.15L383.97-25.15Q386.93-25.15 388.59-22.85L388.59-22.85Q390.2-20.61 390.2-16.77L390.2-16.77 390.2-14.16Q390.2-7.45 390.32-5.96 390.44-4.47 390.51-3.69 390.59-2.91 390.69-2.29L390.69-2.29Q390.86-1.15 391.2 0L391.2 0 384.04 0Q385.17-3.86 385.17-13.26L385.17-13.26Q385.17-17.02 384.69-18.41 384.22-19.8 383.56-20.4 382.9-21 381.82-21L381.82-21Q379.85-21 378.23-19.43L378.23-19.43Q376.84-18.09 376.11-16.02L376.11-16.02Q376.06-15.36 376.06-14.65L376.06-14.65 376.06-13.26Q376.06-3.86 377.18 0L377.18 0ZM412.7-26.1L412.7-26.1Q413.36-24.63 413.36-23.14 413.36-21.66 413.23-20.68 413.09-19.7 412.83-18.8L412.83-18.8Q412.22-16.75 411.09-15.65L411.09-15.65Q410.34-19.43 409.44-20.56 408.55-21.68 407.66-22.07 406.77-22.46 405.77-22.46 404.77-22.46 404.13-22.27 403.5-22.07 403.04-21.7L403.04-21.7Q401.99-20.9 401.99-19.87 401.99-18.85 402.5-18.1 403.01-17.36 403.85-16.71 404.7-16.06 405.77-15.45L405.77-15.45 407.97-14.21Q410.8-12.62 411.85-11.57L411.85-11.57Q413.92-9.5 413.92-7.2L413.92-7.2Q413.92-4.2 411.87-2.15L411.87-2.15Q409.29 0.49 404.11 0.49L404.11 0.49Q399.4 0.49 397.03-1.71L397.03-1.71Q396.35-2.34 396.05-2.98L396.05-2.98Q396.25-4.81 397.69-6.42L397.69-6.42Q399.08-7.98 400.4-8.23L400.4-8.23Q400.3-7.91 400.3-7.28 400.3-6.64 400.67-5.7 401.03-4.76 401.72-3.96L401.72-3.96Q403.26-2.1 405.18-2.1 407.11-2.1 408.02-2.98 408.92-3.86 408.92-4.98 408.92-6.1 408.41-6.86 407.89-7.62 407.05-8.28 406.21-8.94 405.14-9.55L405.14-9.55 402.94-10.79Q400.13-12.45 399.08-13.62L399.08-13.62Q396.98-15.97 396.98-18.73L396.98-18.73Q396.98-21.63 399.42-23.44L399.42-23.44Q401.74-25.15 405.21-25.15L405.21-25.15 409.51-24.85Q411.07-24.85 411.68-25.23 412.29-25.61 412.7-26.1ZM421.17-3.93L421.17-3.93Q421.17-5.64 422.32-6.88L422.32-6.88Q423.47-8.11 425.1-8.11L425.1-8.11Q426.74-8.11 427.89-6.88L427.89-6.88Q429.03-5.64 429.03-3.93L429.03-3.93Q429.03-2.17 427.89-0.98L427.89-0.98Q426.72 0.24 425.1 0.24L425.1 0.24Q423.49 0.24 422.32-0.98L422.32-0.98Q421.17-2.17 421.17-3.93Z" opacity="1" transform="matrix(1,0,0,1,0,0)" fill="#6b7280" class="slogan-text-1" data-fill-palette-color="secondary" id="text-1"></path></svg></g></svg></g></svg></g></svg></g></svg></g><defs></defs></svg><rect width="395.52" height="162.1142294093314" fill="none" stroke="none" visibility="hidden"></rect></g></svg></g></svg>